REM DIRINDEX 1\2\4,1\2\5,1\3\6,1\3\7,1\3\8
REM DIRNAME cjc092,folder01,folder02,folder03,folder04,folder05,folder06,folder07
TITLE ""
FILE "LEVEL2-016-midashigo.mp3" MP3
  TRACK 01 AUDIO
    TITLE "0:"
    INDEX 01 00:00:00
  TRACK 02 AUDIO
    TITLE "6:cjc092_1526"
    INDEX 01 00:00:03
  TRACK 03 AUDIO
    TITLE "0:"
    INDEX 01 00:02:53
  TRACK 04 AUDIO
    TITLE "7:cjc092_1527"
    INDEX 01 00:03:29
  TRACK 05 AUDIO
    TITLE "8:cjc092_1528"
    INDEX 01 00:04:58
  TRACK 06 AUDIO
    TITLE "0:"
    INDEX 01 00:06:71
  TRACK 07 AUDIO
    TITLE "7:cjc092_1529"
    INDEX 01 00:07:33
  TRACK 08 AUDIO
    TITLE "8:cjc092_1530"
    INDEX 01 00:08:40
  TRACK 09 AUDIO
    TITLE "0:"
    INDEX 01 00:10:68
  TRACK 10 AUDIO
    TITLE "7:cjc092_1531"
    INDEX 01 00:11:25
  TRACK 11 AUDIO
    TITLE "8:cjc092_1532"
    INDEX 01 00:12:44
  TRACK 12 AUDIO
    TITLE "0:"
    INDEX 01 00:14:70
  TRACK 13 AUDIO
    TITLE "7:cjc092_1533"
    INDEX 01 00:15:30
  TRACK 14 AUDIO
    TITLE "8:cjc092_1534"
    INDEX 01 00:16:59
  TRACK 15 AUDIO
    TITLE "0:"
    INDEX 01 00:18:05
  TRACK 16 AUDIO
    TITLE "7:cjc092_1535"
    INDEX 01 00:18:35
  TRACK 17 AUDIO
    TITLE "8:cjc092_1536"
    INDEX 01 00:19:56
  TRACK 18 AUDIO
    TITLE "0:"
    INDEX 01 00:24:41
  TRACK 19 AUDIO
    TITLE "7:cjc092_1537"
    INDEX 01 00:24:74
  TRACK 20 AUDIO
    TITLE "8:cjc092_1538"
    INDEX 01 00:26:36
  TRACK 21 AUDIO
    TITLE "0:"
    INDEX 01 00:28:55
  TRACK 22 AUDIO
    TITLE "7:cjc092_1539"
    INDEX 01 00:29:13
  TRACK 23 AUDIO
    TITLE "8:cjc092_1540"
    INDEX 01 00:30:48
  TRACK 24 AUDIO
    TITLE "0:"
    INDEX 01 00:32:41
  TRACK 25 AUDIO
    TITLE "7:cjc092_1541"
    INDEX 01 00:32:72
  TRACK 26 AUDIO
    TITLE "8:cjc092_1542"
    INDEX 01 00:34:38
  TRACK 27 AUDIO
    TITLE "0:"
    INDEX 01 00:37:40
  TRACK 28 AUDIO
    TITLE "7:cjc092_1543"
    INDEX 01 00:38:02
  TRACK 29 AUDIO
    TITLE "8:cjc092_1544"
    INDEX 01 00:39:33
  TRACK 30 AUDIO
    TITLE "0:"
    INDEX 01 00:40:62
  TRACK 31 AUDIO
    TITLE "7:cjc092_1545"
    INDEX 01 00:41:20
  TRACK 32 AUDIO
    TITLE "8:cjc092_1546"
    INDEX 01 00:42:57
  TRACK 33 AUDIO
    TITLE "0:"
    INDEX 01 00:44:65
  TRACK 34 AUDIO
    TITLE "7:cjc092_1547"
    INDEX 01 00:45:26
  TRACK 35 AUDIO
    TITLE "8:cjc092_1548"
    INDEX 01 00:46:54
  TRACK 36 AUDIO
    TITLE "0:"
    INDEX 01 00:49:08
  TRACK 37 AUDIO
    TITLE "7:cjc092_1549"
    INDEX 01 00:49:43
  TRACK 38 AUDIO
    TITLE "8:cjc092_1550"
    INDEX 01 00:51:09
  TRACK 39 AUDIO
    TITLE "0:"
    INDEX 01 00:52:73
  TRACK 40 AUDIO
    TITLE "7:cjc092_1551"
    INDEX 01 00:53:37
  TRACK 41 AUDIO
    TITLE "8:cjc092_1552"
    INDEX 01 00:54:64
  TRACK 42 AUDIO
    TITLE "0:"
    INDEX 01 00:57:23
  TRACK 43 AUDIO
    TITLE "7:cjc092_1553"
    INDEX 01 00:57:60
  TRACK 44 AUDIO
    TITLE "8:cjc092_1554"
    INDEX 01 00:59:16
  TRACK 45 AUDIO
    TITLE "0:"
    INDEX 01 01:00:59
  TRACK 46 AUDIO
    TITLE "7:cjc092_1555"
    INDEX 01 01:01:19
  TRACK 47 AUDIO
    TITLE "8:cjc092_1556"
    INDEX 01 01:02:55
  TRACK 48 AUDIO
    TITLE "0:"
    INDEX 01 01:04:58
  TRACK 49 AUDIO
    TITLE "7:cjc092_1557"
    INDEX 01 01:05:19
  TRACK 50 AUDIO
    TITLE "8:cjc092_1558"
    INDEX 01 01:06:51
  TRACK 51 AUDIO
    TITLE "0:"
    INDEX 01 01:07:74
  TRACK 52 AUDIO
    TITLE "7:cjc092_1559"
    INDEX 01 01:08:33
  TRACK 53 AUDIO
    TITLE "8:cjc092_1560"
    INDEX 01 01:10:06
  TRACK 54 AUDIO
    TITLE "0:"
    INDEX 01 01:11:15
  TRACK 55 AUDIO
    TITLE "7:cjc092_1561"
    INDEX 01 01:11:54
  TRACK 56 AUDIO
    TITLE "8:cjc092_1562"
    INDEX 01 01:12:73
  TRACK 57 AUDIO
    TITLE "0:"
    INDEX 01 01:16:32
  TRACK 58 AUDIO
    TITLE "7:cjc092_1563"
    INDEX 01 01:16:65
  TRACK 59 AUDIO
    TITLE "8:cjc092_1564"
    INDEX 01 01:18:25
  TRACK 60 AUDIO
    TITLE "0:"
    INDEX 01 01:21:14
  TRACK 61 AUDIO
    TITLE "7:cjc092_1565"
    INDEX 01 01:21:51
  TRACK 62 AUDIO
    TITLE "8:cjc092_1566"
    INDEX 01 01:23:05
  TRACK 63 AUDIO
    TITLE "0:"
    INDEX 01 01:24:47
  TRACK 64 AUDIO
    TITLE "7:cjc092_1567"
    INDEX 01 01:25:08
  TRACK 65 AUDIO
    TITLE "8:cjc092_1568"
    INDEX 01 01:26:25
  TRACK 66 AUDIO
    TITLE "0:"
    INDEX 01 01:28:31
